<mxfile host="app.diagrams.net" agent="Mozilla/5.0 (Macintosh; Intel Mac OS X 10_15_7) AppleWebKit/537.36 (KHTML, like Gecko) Chrome/134.0.0.0 Safari/537.36" version="26.1.1">
  <diagram name="Page-1" id="NtOPqStVrBildO5ZMPfJ">
    <mxGraphModel dx="1434" dy="761" grid="0" gridSize="10" guides="1" tooltips="1" connect="1" arrows="1" fold="1" page="1" pageScale="1" pageWidth="827" pageHeight="1169" math="0" shadow="0">
      <root>
        <mxCell id="0" />
        <mxCell id="1" parent="0" />
        <mxCell id="bhFtcZr1vP66nM4e_c60-11" value="" style="rounded=0;whiteSpace=wrap;html=1;" vertex="1" parent="1">
          <mxGeometry x="246.5" y="151" width="335" height="363" as="geometry" />
        </mxCell>
        <mxCell id="bhFtcZr1vP66nM4e_c60-6" style="rounded=0;orthogonalLoop=1;jettySize=auto;html=1;exitX=0;exitY=1;exitDx=0;exitDy=0;entryX=0.5;entryY=0;entryDx=0;entryDy=0;fontStyle=1" edge="1" parent="1" source="bhFtcZr1vP66nM4e_c60-1" target="bhFtcZr1vP66nM4e_c60-2">
          <mxGeometry relative="1" as="geometry" />
        </mxCell>
        <mxCell id="bhFtcZr1vP66nM4e_c60-7" style="rounded=0;orthogonalLoop=1;jettySize=auto;html=1;exitX=1;exitY=1;exitDx=0;exitDy=0;entryX=0.5;entryY=0;entryDx=0;entryDy=0;fontStyle=1" edge="1" parent="1" source="bhFtcZr1vP66nM4e_c60-1" target="bhFtcZr1vP66nM4e_c60-4">
          <mxGeometry relative="1" as="geometry" />
        </mxCell>
        <mxCell id="bhFtcZr1vP66nM4e_c60-1" value="&lt;font style=&quot;font-size: 14px;&quot;&gt;Active&lt;/font&gt;" style="ellipse;whiteSpace=wrap;html=1;aspect=fixed;fontStyle=1" vertex="1" parent="1">
          <mxGeometry x="374" y="186" width="80" height="80" as="geometry" />
        </mxCell>
        <mxCell id="bhFtcZr1vP66nM4e_c60-8" value="" style="edgeStyle=orthogonalEdgeStyle;rounded=0;orthogonalLoop=1;jettySize=auto;html=1;fontStyle=1" edge="1" parent="1" source="bhFtcZr1vP66nM4e_c60-2" target="bhFtcZr1vP66nM4e_c60-3">
          <mxGeometry relative="1" as="geometry" />
        </mxCell>
        <mxCell id="bhFtcZr1vP66nM4e_c60-2" value="&lt;font style=&quot;font-size: 14px;&quot;&gt;Failed&lt;/font&gt;" style="ellipse;whiteSpace=wrap;html=1;aspect=fixed;fontStyle=1" vertex="1" parent="1">
          <mxGeometry x="294" y="291" width="80" height="80" as="geometry" />
        </mxCell>
        <mxCell id="bhFtcZr1vP66nM4e_c60-3" value="&lt;font style=&quot;font-size: 14px;&quot;&gt;Aborted&lt;/font&gt;" style="ellipse;whiteSpace=wrap;html=1;aspect=fixed;fontStyle=1" vertex="1" parent="1">
          <mxGeometry x="294" y="396" width="80" height="80" as="geometry" />
        </mxCell>
        <mxCell id="bhFtcZr1vP66nM4e_c60-9" value="" style="edgeStyle=orthogonalEdgeStyle;rounded=0;orthogonalLoop=1;jettySize=auto;html=1;fontStyle=1" edge="1" parent="1" source="bhFtcZr1vP66nM4e_c60-4" target="bhFtcZr1vP66nM4e_c60-5">
          <mxGeometry relative="1" as="geometry" />
        </mxCell>
        <mxCell id="bhFtcZr1vP66nM4e_c60-10" value="" style="edgeStyle=orthogonalEdgeStyle;rounded=0;orthogonalLoop=1;jettySize=auto;html=1;fontStyle=1" edge="1" parent="1" source="bhFtcZr1vP66nM4e_c60-4" target="bhFtcZr1vP66nM4e_c60-2">
          <mxGeometry relative="1" as="geometry" />
        </mxCell>
        <mxCell id="bhFtcZr1vP66nM4e_c60-4" value="&lt;font style=&quot;font-size: 14px;&quot;&gt;Partially Committed&lt;/font&gt;" style="ellipse;whiteSpace=wrap;html=1;aspect=fixed;fontStyle=1" vertex="1" parent="1">
          <mxGeometry x="454" y="291" width="80" height="80" as="geometry" />
        </mxCell>
        <mxCell id="bhFtcZr1vP66nM4e_c60-5" value="&lt;font style=&quot;font-size: 14px;&quot;&gt;Committed&lt;/font&gt;" style="ellipse;whiteSpace=wrap;html=1;aspect=fixed;fontStyle=1" vertex="1" parent="1">
          <mxGeometry x="454" y="396" width="80" height="80" as="geometry" />
        </mxCell>
        <mxCell id="bhFtcZr1vP66nM4e_c60-12" value="States of a Transaction" style="text;html=1;align=center;verticalAlign=middle;whiteSpace=wrap;rounded=0;" vertex="1" parent="1">
          <mxGeometry x="344" y="486" width="139" height="30" as="geometry" />
        </mxCell>
      </root>
    </mxGraphModel>
  </diagram>
</mxfile>
